<?xml version="1.0" standalone="no"?>
<!DOCTYPE svg PUBLIC "-//W3C//DTD SVG 20010904//EN"
 "http://www.w3.org/TR/2001/REC-SVG-20010904/DTD/svg10.dtd">
<svg version="1.0" xmlns="http://www.w3.org/2000/svg"
 width="195.000000pt" height="195.000000pt" viewBox="0 0 195.000000 195.000000"
 preserveAspectRatio="xMidYMid meet">
<metadata>
Created by potrace 1.11, written by Peter Selinger 2001-2013
</metadata>
<g transform="translate(0.000000,195.000000) scale(0.100000,-0.100000)"
fill="#000000" stroke="none">
<path d="M659 1841 c-31 -10 -76 -32 -100 -48 -40 -28 -409 -403 -460 -467
-91 -115 -68 -288 53 -407 45 -45 274 -198 385 -259 16 -8 30 -17 33 -20 14
-16 221 -141 260 -158 101 -42 248 -60 330 -40 19 5 46 11 59 14 63 13 131 62
237 170 213 216 336 349 351 378 67 128 40 268 -72 381 -32 31 -178 135 -191
135 -3 0 -31 17 -62 38 -32 20 -66 42 -77 49 -11 7 -88 55 -172 108 -197 125
-251 145 -403 144 -82 0 -131 -5 -171 -18z"/>
<path d="M1588 1765 c-2 -2 -30 -5 -63 -8 -33 -3 -80 -9 -104 -13 -71 -11 -22
-29 89 -31 52 -1 102 -3 110 -6 91 -26 118 -76 85 -158 -4 -12 4 -23 30 -39
34 -21 36 -21 62 -5 53 35 102 104 103 146 1 68 -78 110 -217 114 -51 1 -93 1
-95 0z"/>
<path d="M679 473 c-11 -103 -39 -126 -154 -128 l-70 -1 -2 -41 -3 -40 48 8
c66 13 109 28 163 58 43 24 119 85 119 95 0 4 -89 56 -96 56 -2 0 -4 -3 -5 -7z"/>
<path d="M1210 190 c-8 -14 -4 -21 16 -35 19 -12 23 -20 15 -28 -7 -7 -15 -6
-27 4 -15 12 -17 12 -12 -1 7 -22 40 -25 55 -4 12 16 10 21 -14 42 -26 21 -26
22 -5 17 12 -4 22 -2 22 3 0 19 -40 21 -50 2z"/>
<path d="M350 175 c0 -14 5 -25 10 -25 6 0 10 11 10 25 0 14 -4 25 -10 25 -5
0 -10 -11 -10 -25z"/>
<path d="M387 170 c-10 -16 -22 -30 -27 -30 -5 0 -7 -7 -4 -15 7 -18 24 -20
24 -2 0 7 7 22 15 33 8 10 15 15 14 9 -3 -24 2 -55 9 -55 8 0 44 81 38 88 -3
2 -11 -9 -20 -25 l-15 -28 -1 28 c0 35 -11 34 -33 -3z"/>
<path d="M600 192 c0 -4 -10 -12 -22 -17 -21 -9 -35 -53 -19 -56 35 -8 51 -4
52 10 1 9 2 28 3 44 2 15 -1 27 -6 27 -4 0 -8 -3 -8 -8z m-8 -57 c-12 -22 -27
-2 -18 22 5 12 10 13 17 6 7 -7 8 -17 1 -28z"/>
<path d="M859 198 c-17 -70 -15 -83 11 -84 35 -2 45 9 45 48 0 29 -4 33 -27
36 -16 2 -28 2 -29 0z m41 -17 c0 -5 -7 -11 -15 -15 -15 -5 -20 5 -8 17 9 10
23 9 23 -2z m0 -40 c0 -5 -9 -11 -20 -14 -20 -5 -26 3 -13 16 9 10 33 8 33 -2z"/>
<path d="M1003 183 c0 -10 -3 -28 -6 -40 -3 -13 -2 -25 4 -28 5 -4 9 2 10 12
0 10 3 30 5 46 3 15 1 27 -4 27 -4 0 -8 -8 -9 -17z"/>
<path d="M1132 186 c-24 -12 -39 -47 -27 -66 3 -5 10 -8 15 -5 5 3 12 0 16 -6
5 -9 -1 -10 -22 -5 -22 6 -26 5 -18 -4 16 -16 59 -9 59 10 0 8 -11 17 -25 20
l-25 6 26 7 c20 5 27 13 27 32 0 14 -1 24 -2 24 0 -1 -11 -7 -24 -13z m8 -26
c0 -5 -4 -10 -10 -10 -5 0 -10 5 -10 10 0 6 5 10 10 10 6 0 10 -4 10 -10z"/>
<path d="M1286 190 c-10 -32 -13 -71 -6 -75 4 -3 10 9 14 25 3 17 11 30 17 30
7 0 9 -10 7 -25 -3 -14 -1 -28 3 -31 5 -3 9 1 10 8 0 7 2 21 4 31 2 10 -4 21
-13 24 -9 4 -20 11 -24 17 -4 7 -9 5 -12 -4z"/>
<path d="M500 170 c-8 -15 -6 -21 11 -30 26 -14 21 -21 -9 -13 -15 4 -22 13
-23 32 0 23 -1 24 -9 6 -17 -40 -12 -50 27 -50 38 0 57 20 29 31 -9 3 -16 10
-16 15 0 4 8 5 18 2 15 -6 15 -5 3 10 -17 21 -18 21 -31 -3z"/>
<path d="M1563 180 c-13 -5 -24 -14 -24 -20 -5 -36 -2 -45 15 -48 24 -5 34 6
41 46 6 34 3 36 -32 22z m11 -43 c-3 -9 -10 -17 -15 -17 -11 0 -12 34 -2 44
11 11 24 -9 17 -27z"/>
<path d="M630 161 c-7 -15 -6 -23 6 -35 8 -9 19 -16 24 -16 15 0 31 37 24 54
-8 22 -41 20 -54 -3z m40 -3 c0 -7 -4 -19 -9 -27 -11 -17 -25 3 -17 24 7 18
26 20 26 3z"/>
<path d="M714 172 c-14 -9 -24 -62 -13 -62 5 0 9 6 9 13 0 7 7 22 16 33 14 18
15 17 11 -13 -2 -18 0 -33 5 -33 4 0 8 6 9 13 0 6 2 22 5 35 4 23 -18 30 -42
14z"/>
<path d="M775 150 c2 -29 14 -53 16 -34 5 37 2 58 -7 61 -8 3 -11 -7 -9 -27z"/>
<path d="M931 162 c-18 -33 25 -72 45 -40 5 8 2 9 -9 5 -9 -3 -19 -2 -22 3 -4
6 -1 11 4 11 6 1 16 2 21 3 6 0 10 4 10 9 0 4 0 12 0 17 0 17 -39 11 -49 -8z
m39 4 c0 -11 -19 -15 -25 -6 -3 5 1 10 9 10 9 0 16 -2 16 -4z"/>
<path d="M1036 164 c-8 -22 -8 -59 1 -50 4 3 8 12 9 19 1 7 5 20 9 30 4 9 3
17 -3 17 -5 0 -13 -7 -16 -16z"/>
<path d="M1070 143 c0 -42 12 -37 17 7 1 16 -2 30 -7 30 -6 0 -10 -16 -10 -37z"/>
<path d="M1354 169 c-5 -9 -2 -10 9 -6 9 3 19 2 22 -3 4 -6 -3 -10 -14 -10
-14 0 -21 -6 -21 -20 0 -15 6 -19 25 -18 14 1 26 8 26 15 4 43 3 48 -18 51
-11 2 -25 -2 -29 -9z m31 -39 c-3 -5 -10 -10 -16 -10 -5 0 -9 5 -9 10 0 6 7
10 16 10 8 0 12 -4 9 -10z"/>
<path d="M1425 162 c-8 -21 -6 -56 3 -48 4 4 7 11 8 14 0 4 4 15 8 25 9 19 30
24 23 5 -11 -32 32 -64 49 -36 5 8 2 9 -10 5 -10 -4 -19 -1 -22 8 -7 18 4 37
18 29 6 -4 5 -10 -3 -15 -8 -5 -9 -9 -4 -9 19 0 38 18 31 29 -10 15 -94 9
-101 -7z"/>
</g>
</svg>
