<?xml version="1.0" standalone="no"?>
<!DOCTYPE svg PUBLIC "-//W3C//DTD SVG 20010904//EN"
 "http://www.w3.org/TR/2001/REC-SVG-20010904/DTD/svg10.dtd">
<svg version="1.0" xmlns="http://www.w3.org/2000/svg"
 width="310.000000pt" height="310.000000pt" viewBox="0 0 310.000000 310.000000"
 preserveAspectRatio="xMidYMid meet">
<metadata>
Created by potrace 1.11, written by Peter Selinger 2001-2013
</metadata>
<g transform="translate(0.000000,310.000000) scale(0.100000,-0.100000)"
fill="#000000" stroke="none">
<path d="M1081 3000 c-35 -10 -98 -35 -139 -56 -88 -45 -121 -76 -525 -497
-241 -251 -271 -286 -304 -355 -68 -142 -56 -298 34 -451 69 -116 152 -180
583 -452 217 -136 398 -245 403 -240 4 4 11 205 14 447 7 488 5 508 -48 519
-28 6 -119 1 -180 -11 -18 -3 -28 0 -32 10 -11 29 19 43 110 50 48 4 142 14
208 22 228 28 350 45 373 50 l22 4 0 255 c0 265 -5 299 -43 311 -11 3 -65 3
-119 -1 l-100 -7 4 24 c3 22 10 24 143 40 553 66 561 67 543 83 -23 21 -251
161 -315 194 -34 17 -101 42 -149 56 -77 22 -103 25 -253 24 -129 0 -180 -4
-230 -19z"/>
<path d="M2480 2863 c-19 -2 -84 -10 -143 -18 -59 -8 -112 -15 -117 -15 -18 0
-10 -19 12 -31 15 -8 78 -13 178 -13 179 -1 226 -12 281 -67 50 -50 55 -92 24
-196 -6 -18 2 -27 46 -57 52 -35 53 -35 82 -18 50 28 132 116 155 165 28 59
28 92 -1 142 -26 47 -101 89 -186 105 -51 9 -254 11 -331 3z"/>
<path d="M2005 2660 c-123 -28 -131 -33 -139 -77 -3 -21 -8 -213 -12 -428 -4
-318 -3 -395 8 -415 13 -23 19 -25 88 -25 41 0 93 3 115 5 37 5 40 3 40 -20
l0 -25 -195 -21 c-212 -23 -240 -21 -299 23 l-33 26 6 96 c4 53 10 116 13 140
l6 43 -54 -7 c-70 -9 -115 -28 -128 -54 -7 -13 -15 -176 -21 -453 -9 -442 -14
-489 -53 -565 -9 -17 -21 -35 -27 -38 -21 -13 -9 -33 29 -48 101 -41 205 -60
331 -60 149 -1 236 17 360 75 82 38 93 48 299 256 493 499 552 570 580 693 13
57 13 152 0 209 -18 78 -75 183 -137 250 -89 97 -95 99 -178 57 -135 -68 -345
-117 -499 -117 -66 0 -84 3 -89 16 -14 37 -7 40 86 42 113 3 248 32 320 68 66
33 128 81 128 99 0 20 -410 275 -440 274 -14 0 -61 -9 -105 -19z"/>
<path d="M1086 819 c-2 -8 -7 -34 -11 -58 -8 -60 -31 -95 -79 -123 -35 -20
-56 -23 -148 -25 -59 -1 -112 -4 -118 -8 -5 -3 -10 -31 -10 -62 l0 -56 61 7
c80 8 183 44 275 97 80 46 187 135 179 149 -3 5 -24 19 -48 32 -23 13 -54 32
-69 42 -22 14 -29 15 -32 5z"/>
</g>
</svg>
